<svg width="22.000000" height="27.591675" viewBox="0 0 22 27.5917" fill="none" xmlns="http://www.w3.org/2000/svg" xmlns:xlink="http://www.w3.org/1999/xlink">
	<desc>
			Created with Pixso.
	</desc>
	<defs/>
	<path id="Vector" d="M11 0C8.08 0 5.28 1.14 3.22 3.17C1.16 5.21 0 7.96 0 10.83C-0.01 13.18 0.77 15.47 2.21 17.34C2.21 17.34 2.51 17.73 2.56 17.78L11 27.59L19.43 17.78C19.48 17.73 19.78 17.34 19.78 17.34L19.78 17.34C21.22 15.47 22 13.18 22 10.83C21.99 7.96 20.83 5.21 18.77 3.17C16.71 1.14 13.91 0 11 0ZM11 14.78C10.2 14.78 9.43 14.55 8.77 14.11C8.12 13.68 7.6 13.06 7.3 12.34C7 11.62 6.92 10.83 7.07 10.07C7.23 9.3 7.61 8.6 8.17 8.05C8.73 7.5 9.44 7.12 10.21 6.97C10.99 6.82 11.79 6.89 12.53 7.19C13.26 7.49 13.88 8 14.32 8.64C14.76 9.29 15 10.06 15 10.83C14.99 11.88 14.57 12.88 13.82 13.62C13.07 14.36 12.06 14.78 11 14.78Z" fill="#000000" fill-opacity="1.000000" fill-rule="nonzero"/>
</svg>
