<svg width="22.268555" height="22.268372" viewBox="0 0 22.2686 22.2684" fill="none" xmlns="http://www.w3.org/2000/svg" xmlns:xlink="http://www.w3.org/1999/xlink">
	<desc>
			Created with Pixso.
	</desc>
	<defs/>
	<path id="Vector" d="M21.85 17.44L16.77 12.82C16.53 12.6 16.22 12.48 15.89 12.49C15.57 12.5 15.26 12.64 15.03 12.87L12.04 15.95C11.32 15.81 9.87 15.36 8.39 13.87C6.9 12.38 6.44 10.93 6.31 10.22L9.38 7.22C9.62 7 9.75 6.69 9.76 6.36C9.77 6.04 9.66 5.72 9.44 5.48L4.82 0.4C4.6 0.16 4.3 0.02 3.97 0C3.65 -0.02 3.33 0.08 3.08 0.3L0.37 2.62C0.15 2.84 0.02 3.13 0.01 3.43C-0.01 3.75 -0.37 11.15 5.37 16.89C10.38 21.9 16.65 22.26 18.38 22.26C18.63 22.26 18.78 22.26 18.83 22.25C19.13 22.24 19.42 22.11 19.64 21.89L21.96 19.18C22.17 18.93 22.28 18.61 22.26 18.29C22.24 17.96 22.09 17.66 21.85 17.44Z" fill="#000000" fill-opacity="1.000000" fill-rule="nonzero"/>
</svg>
