<svg width="23.000000" height="23.000000" viewBox="0 0 23 23" fill="none" xmlns="http://www.w3.org/2000/svg" xmlns:xlink="http://www.w3.org/1999/xlink">
	<desc>
			Created with Pixso.
	</desc>
	<defs/>
	<path id="Vector" d="M23 11.5C23 14.55 21.78 17.47 19.63 19.63C17.47 21.78 14.54 23 11.5 23C8.45 23 5.52 21.78 3.36 19.63C1.21 17.47 0 14.55 0 11.5C0 8.45 1.21 5.52 3.36 3.36C5.52 1.21 8.45 0 11.5 0C14.54 0 17.47 1.21 19.63 3.36C21.78 5.52 23 8.45 23 11.5ZM11.5 5.03C11.5 4.84 11.42 4.65 11.28 4.52C11.15 4.38 10.97 4.31 10.78 4.31C10.59 4.31 10.4 4.38 10.27 4.52C10.13 4.65 10.06 4.84 10.06 5.03L10.06 12.93C10.06 13.06 10.09 13.18 10.16 13.29C10.22 13.4 10.31 13.49 10.42 13.56L15.45 16.43C15.62 16.52 15.81 16.54 15.99 16.49C16.17 16.44 16.32 16.32 16.42 16.16C16.51 15.99 16.54 15.8 16.49 15.62C16.44 15.44 16.33 15.28 16.16 15.18L11.5 12.52L11.5 5.03Z" fill="#000000" fill-opacity="1.000000" fill-rule="nonzero"/>
</svg>
