<svg width="85.000000" height="30.000000" viewBox="0 0 85 30" fill="none" xmlns="http://www.w3.org/2000/svg" xmlns:xlink="http://www.w3.org/1999/xlink">
	<desc>
			Created with Pixso.
	</desc>
	<defs>
		<clipPath id="clip117_553">
			<rect id="system-uicons:filtering" width="25.000000" height="25.000000" transform="translate(0.000000 2.000000)" fill="white" fill-opacity="0"/>
		</clipPath>
	</defs>
	<path id="Filter" d="M49.04 9.15Q49.27 9.26 49.56 9.26Q49.79 9.26 50 9.17Q50.22 9.08 50.41 8.89Q50.56 8.73 50.65 8.53Q50.76 8.3 50.76 8.02Q50.76 7.72 50.64 7.47Q50.55 7.29 50.41 7.14Q50.22 6.95 50 6.86Q49.79 6.78 49.56 6.78Q49.27 6.78 49.04 6.88Q48.84 6.97 48.67 7.14Q48.52 7.29 48.43 7.48Q48.32 7.72 48.32 8.02Q48.32 8.29 48.42 8.52Q48.51 8.73 48.67 8.89Q48.84 9.06 49.04 9.15ZM55.35 22L55.35 7.2L53.53 7.2L53.53 22L55.35 22ZM46.41 9.53L46.41 8.05L38.53 8.05L38.53 22L40.35 22L40.35 15.72L45.28 15.72L45.28 14.24L40.35 14.24L40.35 9.53L46.41 9.53ZM60.67 19L60.67 12.54L63.54 12.54L63.54 11.03L60.67 11.03L60.67 8.27L58.85 8.27L58.85 11.03L57.43 11.03L57.43 12.54L58.85 12.54L58.85 19Q58.85 20.59 59.62 21.3Q60.38 22 61.9 22L63.54 22L63.54 20.46L62.19 20.46Q61.35 20.46 61.01 20.12Q60.67 19.79 60.67 19ZM80.65 11.86Q80.23 12.26 79.95 12.82L79.95 11.03L78.13 11.03L78.13 22L79.95 22L79.95 16.03Q79.95 14.24 80.85 13.41Q81.61 12.71 83.02 12.71L83.49 12.71L83.49 10.83Q82.22 10.83 81.32 11.36Q80.95 11.57 80.65 11.86ZM75.67 17.2Q75.73 16.61 75.73 16.1Q75.73 14.72 75.19 13.61Q75.14 13.51 75.08 13.41Q74.79 12.88 74.4 12.45Q73.9 11.91 73.23 11.54Q73.19 11.51 73.14 11.49Q71.98 10.86 70.47 10.86Q68.92 10.86 67.71 11.51Q67.68 11.53 67.64 11.55Q67.15 11.82 66.75 12.19Q66.14 12.75 65.73 13.51Q65.05 14.79 65.05 16.5Q65.05 18.2 65.75 19.49Q66.19 20.28 66.82 20.86Q67.22 21.21 67.69 21.48Q67.86 21.58 68.04 21.66Q69.14 22.18 70.47 22.18Q72.25 22.18 73.5 21.36Q73.63 21.28 73.76 21.18Q74.44 20.67 74.89 20Q75.3 19.38 75.51 18.62L73.56 18.62Q73.39 19.1 73.09 19.48Q72.82 19.82 72.44 20.09Q71.66 20.63 70.47 20.63Q69.59 20.63 68.87 20.29Q68.41 20.08 68.02 19.72Q67.82 19.55 67.66 19.34Q67 18.5 66.91 17.2L75.67 17.2ZM50.43 22L50.43 11.03L48.61 11.03L48.61 22L50.43 22ZM73.39 13.93Q73.85 14.68 73.85 15.72L66.93 15.72Q67.05 14.42 67.74 13.6Q67.88 13.43 68.04 13.27Q68.43 12.92 68.88 12.71Q69.56 12.4 70.4 12.4Q71.24 12.4 71.96 12.7Q72.05 12.74 72.14 12.79Q72.54 12.98 72.86 13.27Q73.17 13.56 73.39 13.93Z" fill="#000000" fill-opacity="1.000000" fill-rule="evenodd"/>
	<rect id="system-uicons:filtering" width="25.000000" height="25.000000" transform="translate(0.000000 2.000000)" fill="#FFFFFF" fill-opacity="0"/>
	<g clip-path="url(#clip117_553)">
		<path id="Vector" d="M8.57 7.11C8.8 7.33 8.92 7.63 8.92 7.95L8.92 10.33C8.92 10.64 8.8 10.95 8.57 11.17C8.35 11.39 8.05 11.52 7.73 11.52C7.42 11.52 7.11 11.39 6.89 11.17C6.67 10.95 6.54 10.64 6.54 10.33L6.54 7.95C6.54 7.63 6.67 7.33 6.89 7.11C7.11 6.88 7.42 6.76 7.73 6.76C8.05 6.76 8.35 6.88 8.57 7.11ZM22.02 9.14L8.92 9.14M6.54 9.14L2.97 9.14M8.57 19.01C8.8 19.23 8.92 19.54 8.92 19.85L8.92 22.23C8.92 22.55 8.8 22.85 8.57 23.07C8.35 23.3 8.05 23.42 7.73 23.42C7.42 23.42 7.11 23.3 6.89 23.07C6.67 22.85 6.54 22.55 6.54 22.23L6.54 19.85C6.54 19.54 6.67 19.23 6.89 19.01C7.11 18.79 7.42 18.66 7.73 18.66C8.05 18.66 8.35 18.79 8.57 19.01ZM22.02 21.04L8.92 21.04M6.54 21.04L2.97 21.04M18.1 13.06C18.32 13.28 18.45 13.58 18.45 13.9L18.45 16.28C18.45 16.6 18.32 16.9 18.1 17.12C17.88 17.35 17.57 17.47 17.26 17.47C16.94 17.47 16.64 17.35 16.42 17.12C16.19 16.9 16.07 16.6 16.07 16.28L16.07 13.9C16.07 13.58 16.19 13.28 16.42 13.06C16.64 12.83 16.94 12.71 17.26 12.71C17.57 12.71 17.88 12.83 18.1 13.06ZM16.07 15.09L2.97 15.09M22.02 15.09L18.45 15.09" stroke="#000000" stroke-opacity="1.000000" stroke-width="1.000000" stroke-linejoin="round"/>
	</g>
</svg>
