<svg width="12.000000" height="13.333336" viewBox="0 0 12 13.3333" fill="none" xmlns="http://www.w3.org/2000/svg" xmlns:xlink="http://www.w3.org/1999/xlink">
	<desc>
			Created with Pixso.
	</desc>
	<defs/>
	<path id="Vector" d="M10 9.33C9.47 9.33 9 9.54 8.64 9.87L3.94 7.13C3.97 6.98 4 6.82 4 6.66C4 6.5 3.97 6.35 3.94 6.2L8.64 3.46C9 3.79 9.47 4 10 4C11.1 4 12 3.1 12 2C12 0.89 11.1 0 10 0C8.89 0 8 0.89 8 2C8 2.16 8.02 2.31 8.06 2.46L3.35 5.2C3 4.87 2.52 4.66 2 4.66C0.89 4.66 0 5.56 0 6.66C0 7.77 0.89 8.66 2 8.66C2.52 8.66 3 8.46 3.35 8.12L8.05 10.87C8.02 11.02 8 11.17 8 11.33C8 11.72 8.11 12.11 8.33 12.44C8.55 12.77 8.86 13.02 9.23 13.18C9.6 13.33 10 13.37 10.39 13.29C10.77 13.21 11.13 13.02 11.41 12.74C11.69 12.46 11.88 12.11 11.96 11.72C12.03 11.33 11.99 10.93 11.84 10.56C11.69 10.2 11.44 9.89 11.11 9.67C10.78 9.45 10.39 9.33 10 9.33Z" fill="#FFFFFF" fill-opacity="1.000000" fill-rule="nonzero"/>
</svg>
