<svg width="237.000000" height="37.000000" viewBox="0 0 237 37" fill="none" xmlns="http://www.w3.org/2000/svg" xmlns:xlink="http://www.w3.org/1999/xlink">
	<desc>
			Created with Pixso.
	</desc>
	<defs/>
	<line id="Line 5" x1="1.000000" y1="0.000000" x2="1.000000" y2="37.000000" stroke="#9F9F9F" stroke-opacity="1.000000" stroke-width="2.000000"/>
	<path id="Showing 1–16 of 32 results" d="M154.96 17.43L156.8 17.43L156.8 16.23L154.96 16.23L154.96 15.6Q154.96 14.74 155.35 14.36Q155.74 13.99 156.7 13.99L156.7 12.77Q155.02 12.77 154.26 13.45Q154.24 13.47 154.21 13.49Q153.5 14.17 153.5 15.6L153.5 16.23L152.36 16.23L152.36 17.43L153.5 17.43L153.5 25L154.96 25L154.96 17.43ZM78.56 14.72Q78.75 14.8 78.97 14.8Q79.16 14.8 79.33 14.74Q79.5 14.66 79.65 14.51Q79.78 14.38 79.85 14.23Q79.93 14.04 79.93 13.81Q79.93 13.57 79.84 13.38Q79.77 13.23 79.65 13.11Q79.5 12.96 79.33 12.89Q79.16 12.82 78.97 12.82Q78.75 12.82 78.56 12.9Q78.4 12.97 78.26 13.11Q78.14 13.23 78.07 13.38Q77.98 13.58 77.98 13.81Q77.98 14.03 78.06 14.22Q78.13 14.38 78.26 14.51Q78.4 14.65 78.56 14.72ZM50.53 16.38Q49.82 16.07 48.97 16.07Q48.03 16.07 47.27 16.44Q46.75 16.68 46.39 17.07Q46.22 17.26 46.07 17.48L46.07 13.16L44.62 13.16L44.62 25L46.07 25L46.07 20.15Q46.07 18.77 46.75 18.05Q46.94 17.86 47.15 17.72Q47.74 17.33 48.59 17.33Q49.46 17.33 50.04 17.74Q50.22 17.86 50.38 18.03L50.38 18.03Q51.04 18.72 51.04 20.03L51.04 25L52.48 25L52.48 19.83Q52.48 18.61 52.02 17.76Q51.71 17.19 51.24 16.81Q51.02 16.63 50.76 16.49Q50.65 16.43 50.53 16.38ZM221.6 25L221.6 13.16L220.14 13.16L220.14 25L221.6 25ZM134.06 14.87Q134.59 15.31 134.76 16.18L136.11 16.18Q136.01 15.37 135.62 14.74Q135.39 14.35 135.05 14.03Q134.96 13.95 134.86 13.87Q134 13.19 132.59 13.19Q131.25 13.19 130.34 13.82Q128.49 15.11 128.49 19.06Q128.49 20.96 128.86 22.26Q129.16 23.32 129.84 24.01Q129.99 24.16 130.16 24.29Q131.09 25.03 132.73 25.03Q133.95 25.03 134.8 24.51Q135.33 24.2 135.69 23.76Q135.92 23.47 136.08 23.14Q136.51 22.28 136.51 21.19Q136.51 19.57 135.72 18.58Q135.63 18.46 135.52 18.35Q135.26 18.08 134.96 17.88Q134.1 17.33 132.89 17.33Q132.05 17.33 131.33 17.63Q131.15 17.71 130.98 17.8Q130.4 18.12 130.05 18.6Q129.88 18.84 129.76 19.11Q129.74 16.6 130.44 15.5Q130.73 15.05 131.14 14.79Q131.73 14.4 132.57 14.4Q133.51 14.4 134.06 14.87ZM163.06 14.64Q162.57 15.34 162.49 16.34L163.91 16.34Q163.99 15.75 164.29 15.33Q164.44 15.13 164.63 14.96Q164.68 14.93 164.72 14.89Q165.31 14.45 166.23 14.45Q167.25 14.45 167.81 14.96L167.81 14.96Q167.99 15.13 168.11 15.33Q168.36 15.75 168.36 16.32Q168.36 16.93 168.08 17.35Q167.9 17.61 167.61 17.79Q166.86 18.26 165.39 18.28L165 18.28L165 19.49L165.37 19.49Q166.99 19.49 167.79 20.02Q167.99 20.16 168.15 20.34Q168.59 20.86 168.59 21.75Q168.59 22.38 168.31 22.86Q168.18 23.08 168 23.26Q167.97 23.29 167.95 23.31Q167.37 23.84 166.3 23.84Q165.31 23.84 164.67 23.37Q164.58 23.31 164.51 23.24Q164.26 23.01 164.09 22.74Q163.79 22.27 163.72 21.67L162.32 21.67Q162.41 22.87 163.03 23.67Q163.25 23.95 163.53 24.19Q163.65 24.28 163.78 24.37Q164.81 25.07 166.32 25.07Q167.48 25.07 168.32 24.66Q168.99 24.32 169.39 23.78Q169.48 23.65 169.56 23.51Q169.64 23.38 169.7 23.24Q169.98 22.62 169.98 21.87Q169.98 20.71 169.42 19.97Q169.39 19.94 169.37 19.91Q169.21 19.71 169.02 19.55Q168.49 19.09 167.72 18.9L167.72 18.82Q168.23 18.7 168.63 18.43Q168.95 18.21 169.2 17.89Q169.38 17.66 169.51 17.4Q169.77 16.85 169.77 16.18Q169.77 15.53 169.53 14.99Q169.46 14.82 169.36 14.66Q169.31 14.57 169.24 14.48Q168.85 13.93 168.16 13.6Q167.37 13.2 166.29 13.2Q164.76 13.2 163.76 13.93Q163.69 13.98 163.63 14.03Q163.29 14.3 163.06 14.64ZM174.96 21.15Q173.8 22.19 171.77 23.83L171.77 24.87L179.47 24.87L179.47 23.65L173.96 23.65Q175.53 22.39 176.54 21.44Q177.55 20.48 178.34 19.23Q179.01 18.16 179.11 17.03Q179.13 16.84 179.13 16.64Q179.13 15.39 178.54 14.56Q178.37 14.33 178.16 14.13Q178.03 14 177.88 13.89Q176.96 13.22 175.55 13.22Q174.36 13.22 173.49 13.75Q173.18 13.94 172.91 14.19Q172.79 14.31 172.69 14.43Q171.88 15.38 171.82 16.96L173.23 16.96Q173.27 15.87 173.83 15.2Q173.85 15.17 173.87 15.15Q174.02 14.98 174.19 14.86Q174.74 14.47 175.56 14.47Q176.6 14.47 177.11 14.99Q177.15 15.03 177.19 15.07Q177.69 15.67 177.69 16.71Q177.69 17.81 176.9 18.96Q176.11 20.1 174.96 21.15ZM106.86 13.43L106.86 14.76L108.4 14.76L108.4 25L109.87 25L109.87 13.43L106.86 13.43ZM122.81 13.43L122.81 14.76L124.35 14.76L124.35 25L125.82 25L125.82 13.43L122.81 13.43ZM36.79 24.72Q37.66 25.11 38.76 25.11Q39.92 25.11 40.76 24.66Q41.56 24.24 41.99 23.57Q42.02 23.53 42.04 23.49Q42.3 23.06 42.4 22.6Q42.48 22.29 42.48 21.96Q42.48 20.9 42 20.28Q41.63 19.82 41.16 19.53Q41 19.44 40.84 19.37Q40.17 19.07 39.07 18.77Q38.16 18.51 37.65 18.32Q37.28 18.17 36.99 17.92Q36.89 17.83 36.8 17.73Q36.74 17.66 36.68 17.58Q36.46 17.23 36.46 16.74Q36.46 16.16 36.72 15.76Q36.85 15.57 37.03 15.42Q37.09 15.38 37.15 15.34Q37.7 14.95 38.52 14.95Q39.47 14.95 40.06 15.41Q40.07 15.42 40.09 15.44Q40.57 15.83 40.72 16.33Q40.75 16.44 40.76 16.56L42.36 16.56Q42.29 15.87 41.97 15.32Q41.7 14.85 41.23 14.48Q41.18 14.44 41.12 14.4Q40.15 13.7 38.67 13.7Q37.58 13.7 36.74 14.08Q36.07 14.39 35.64 14.89Q35.53 15.02 35.43 15.17Q35.32 15.35 35.23 15.54Q34.97 16.1 34.97 16.79Q34.97 17.83 35.44 18.44Q35.82 18.93 36.3 19.21Q36.44 19.28 36.58 19.35Q37.24 19.64 38.35 19.92Q39.24 20.16 39.77 20.37Q40.2 20.54 40.51 20.83Q40.58 20.9 40.65 20.98Q40.7 21.04 40.75 21.1Q41 21.47 41 22.02Q41 22.46 40.83 22.81Q40.68 23.11 40.4 23.35Q40.39 23.36 40.39 23.37Q39.79 23.87 38.76 23.87Q37.67 23.87 37.1 23.34Q36.84 23.08 36.68 22.77Q36.5 22.43 36.46 22.02L34.91 22.02Q34.92 22.65 35.16 23.18Q35.27 23.41 35.42 23.63Q35.47 23.7 35.52 23.76Q36 24.36 36.79 24.72ZM225.85 22.6L225.85 17.43L228.14 17.43L228.14 16.23L225.85 16.23L225.85 14.02L224.39 14.02L224.39 16.23L223.26 16.23L223.26 17.43L224.39 17.43L224.39 22.6Q224.39 23.87 225 24.44Q225.61 25 226.83 25L228.14 25L228.14 23.76L227.07 23.76Q226.39 23.76 226.12 23.5Q225.85 23.23 225.85 22.6ZM88.48 16.6Q87.62 16.07 86.43 16.07Q85.68 16.07 85.04 16.32Q84.91 16.37 84.79 16.44Q84.32 16.67 83.98 17.01Q83.77 17.22 83.61 17.48L83.61 16.23L82.15 16.23L82.15 25L83.61 25L83.61 20.15Q83.61 18.77 84.29 18.05Q84.47 17.86 84.69 17.72Q85.28 17.33 86.12 17.33Q86.99 17.33 87.58 17.74Q87.76 17.86 87.92 18.03L87.92 18.03Q88.57 18.72 88.57 20.03L88.57 25L90.01 25L90.01 19.83Q90.01 18.17 89.19 17.22Q89.11 17.12 89.02 17.03Q88.77 16.79 88.48 16.6ZM187.68 16.89Q187.34 17.21 187.12 17.65L187.12 16.23L185.66 16.23L185.66 25L187.12 25L187.12 20.23Q187.12 18.79 187.83 18.13Q188.44 17.57 189.56 17.57L189.95 17.57L189.95 16.07Q188.92 16.07 188.21 16.48Q187.91 16.66 187.68 16.89ZM56.91 24.8Q57.73 25.14 58.68 25.14Q59.66 25.14 60.49 24.8Q60.73 24.7 60.96 24.58Q61.39 24.34 61.76 24.01Q62.24 23.58 62.58 22.99Q62.61 22.94 62.63 22.88Q63.18 21.89 63.18 20.6Q63.18 19.23 62.59 18.21Q62.25 17.61 61.77 17.18Q61.42 16.87 61 16.64Q60.83 16.54 60.64 16.46Q59.78 16.08 58.75 16.08Q57.7 16.08 56.83 16.47Q56.66 16.55 56.49 16.64Q56.1 16.85 55.78 17.13Q55.26 17.58 54.9 18.22Q54.87 18.26 54.85 18.3Q54.31 19.3 54.31 20.6Q54.31 21.96 54.88 22.99Q55.22 23.6 55.7 24.04Q56.04 24.35 56.45 24.58Q56.67 24.71 56.91 24.8ZM97.97 16.56Q97.13 16.08 96.01 16.08Q95.19 16.08 94.48 16.36Q94.18 16.48 93.89 16.64Q93.57 16.83 93.29 17.08Q92.75 17.55 92.39 18.22Q91.85 19.23 91.85 20.58Q91.85 21.9 92.39 22.94L92.39 22.95Q92.77 23.67 93.34 24.16Q93.6 24.39 93.89 24.57Q94.21 24.76 94.55 24.88Q95.23 25.14 96.01 25.14Q97.09 25.14 97.91 24.68Q97.95 24.65 98 24.63Q98.78 24.16 99.2 23.47Q99.24 23.41 99.28 23.35L99.28 25.19Q99.28 26.37 98.7 27.09Q98.61 27.2 98.51 27.3Q98.29 27.52 98.02 27.68Q97.39 28.05 96.55 28.05Q95.54 28.05 94.8 27.6Q94.77 27.58 94.75 27.56Q94.26 27.24 93.98 26.79Q93.84 26.55 93.76 26.28L92.32 26.28Q92.42 26.99 92.77 27.56Q93.11 28.1 93.67 28.5Q93.68 28.5 93.69 28.51Q94.84 29.32 96.55 29.32Q97.82 29.32 98.77 28.79Q99.31 28.49 99.7 28.06Q100.01 27.73 100.23 27.32Q100.26 27.28 100.28 27.23Q100.75 26.33 100.75 25.19L100.75 16.23L99.28 16.23L99.28 17.83Q99.25 17.79 99.23 17.74Q98.81 17.05 98 16.58Q97.99 16.57 97.97 16.56ZM145.04 24.8Q145.85 25.14 146.81 25.14Q147.78 25.14 148.62 24.8Q148.86 24.7 149.08 24.58Q149.52 24.34 149.88 24.01Q150.36 23.58 150.7 22.99Q150.73 22.94 150.76 22.88Q151.31 21.89 151.31 20.6Q151.31 19.23 150.72 18.21Q150.38 17.61 149.9 17.18Q149.55 16.87 149.13 16.64Q148.95 16.54 148.77 16.46Q147.9 16.08 146.88 16.08Q145.83 16.08 144.96 16.47Q144.78 16.55 144.62 16.64Q144.23 16.85 143.91 17.13Q143.39 17.58 143.03 18.22Q143 18.26 142.98 18.3Q142.44 19.3 142.44 20.6Q142.44 21.96 143.01 22.99Q143.35 23.6 143.83 24.04Q144.17 24.35 144.58 24.58Q144.8 24.71 145.04 24.8ZM199.58 21.16Q199.63 20.69 199.63 20.28Q199.63 19.18 199.19 18.29Q199.15 18.21 199.11 18.12Q198.88 17.7 198.56 17.36Q198.16 16.93 197.63 16.63Q197.59 16.61 197.55 16.59Q196.62 16.08 195.42 16.08Q194.17 16.08 193.21 16.6Q193.18 16.62 193.15 16.64Q192.76 16.86 192.44 17.15Q191.95 17.6 191.63 18.21Q191.08 19.23 191.08 20.6Q191.08 21.96 191.64 22.99Q191.99 23.63 192.5 24.08Q192.81 24.37 193.19 24.58Q193.33 24.66 193.48 24.73Q194.35 25.14 195.42 25.14Q196.84 25.14 197.84 24.49Q197.94 24.42 198.04 24.35Q198.59 23.94 198.95 23.4Q199.28 22.9 199.45 22.29L197.88 22.29Q197.75 22.68 197.51 22.98Q197.29 23.26 196.99 23.47Q196.36 23.91 195.42 23.91Q194.71 23.91 194.14 23.63Q193.77 23.46 193.46 23.18Q193.3 23.04 193.17 22.87Q192.64 22.2 192.57 21.16L199.58 21.16ZM202.84 24.8Q203.64 25.14 204.65 25.14Q205.6 25.14 206.32 24.81Q207 24.5 207.4 23.98Q207.42 23.95 207.45 23.91Q207.63 23.65 207.73 23.37Q207.85 23.01 207.85 22.61Q207.84 21.88 207.48 21.41Q207.45 21.36 207.41 21.32Q207.17 21.04 206.88 20.84Q206.66 20.68 206.39 20.57Q205.8 20.32 204.86 20.07Q204.11 19.86 203.68 19.69Q203.26 19.52 202.98 19.25Q202.88 19.15 202.82 19.03Q202.7 18.81 202.7 18.53Q202.7 18.29 202.79 18.1Q202.9 17.84 203.16 17.65Q203.63 17.32 204.41 17.32Q205.26 17.32 205.76 17.73L205.76 17.73Q205.97 17.9 206.1 18.12Q206.29 18.43 206.32 18.83L207.77 18.83Q207.73 17.99 207.33 17.39Q207.12 17.07 206.81 16.82Q206.77 16.79 206.74 16.76Q205.86 16.08 204.46 16.08Q203.51 16.08 202.78 16.41Q202.04 16.74 201.64 17.3L201.64 17.3Q201.42 17.61 201.32 17.96Q201.25 18.23 201.25 18.53Q201.25 19.32 201.62 19.82Q201.65 19.86 201.68 19.9Q201.95 20.21 202.27 20.43Q202.49 20.58 202.74 20.69Q203.35 20.95 204.33 21.2Q205.41 21.48 205.92 21.76Q206.18 21.9 206.3 22.11Q206.43 22.33 206.43 22.61Q206.43 22.84 206.35 23.03Q206.24 23.32 205.95 23.54Q205.47 23.91 204.64 23.91Q203.74 23.91 203.19 23.49Q202.87 23.25 202.71 22.92Q202.6 22.69 202.57 22.42L201.07 22.42Q201.1 22.9 201.28 23.32Q201.4 23.59 201.58 23.83Q201.61 23.88 201.64 23.92Q202.1 24.48 202.84 24.8ZM231.19 24.8Q232 25.14 233 25.14Q233.95 25.14 234.68 24.81Q235.36 24.5 235.75 23.98Q235.78 23.95 235.8 23.91Q235.98 23.65 236.08 23.37Q236.2 23.01 236.2 22.61Q236.19 21.88 235.83 21.41Q235.8 21.36 235.76 21.32Q235.53 21.04 235.24 20.84Q235.01 20.68 234.75 20.57Q234.16 20.32 233.21 20.07Q232.46 19.86 232.03 19.69Q231.61 19.52 231.33 19.25Q231.23 19.15 231.17 19.03Q231.05 18.81 231.05 18.53Q231.05 18.29 231.14 18.1Q231.25 17.84 231.52 17.65Q231.98 17.32 232.77 17.32Q233.61 17.32 234.11 17.73L234.12 17.73Q234.32 17.9 234.45 18.12Q234.64 18.43 234.67 18.83L236.12 18.83Q236.08 17.99 235.68 17.39Q235.47 17.07 235.16 16.82Q235.13 16.79 235.09 16.76Q234.21 16.08 232.81 16.08Q231.87 16.08 231.13 16.41Q230.39 16.74 230 17.3L230 17.3Q229.77 17.61 229.68 17.96Q229.6 18.23 229.6 18.53Q229.6 19.32 229.97 19.82Q230 19.86 230.03 19.9Q230.3 20.21 230.62 20.43Q230.84 20.58 231.09 20.69Q231.71 20.95 232.68 21.2Q233.76 21.48 234.27 21.76Q234.53 21.9 234.66 22.11Q234.78 22.33 234.78 22.61Q234.78 22.84 234.7 23.03Q234.59 23.32 234.3 23.54Q233.82 23.91 232.99 23.91Q232.09 23.91 231.54 23.49Q231.22 23.25 231.06 22.92Q230.95 22.69 230.93 22.42L229.42 22.42Q229.45 22.9 229.63 23.32Q229.75 23.59 229.93 23.83Q229.96 23.88 229.99 23.92Q230.45 24.48 231.19 24.8ZM74.04 25L76.78 16.23L75.34 16.23L73.36 23.6L71.23 16.23L69.74 16.23L67.56 23.59L65.55 16.23L64.06 16.23L66.81 25L68.32 25L70.43 18.03L72.54 25L74.04 25ZM79.67 25L79.67 16.23L78.22 16.23L78.22 25L79.67 25ZM217.68 25L217.68 16.23L216.22 16.23L216.22 21.04Q216.22 22.42 215.55 23.14Q215.38 23.31 215.19 23.44Q214.59 23.86 213.71 23.86Q212.84 23.86 212.25 23.45Q212.07 23.33 211.91 23.16Q211.91 23.16 211.9 23.15Q211.26 22.46 211.26 21.17L211.26 16.23L209.82 16.23L209.82 21.36Q209.82 22.58 210.29 23.43Q210.61 24 211.08 24.38Q211.31 24.56 211.58 24.7Q211.6 24.71 211.62 24.72Q212.42 25.12 213.42 25.12Q214.17 25.12 214.8 24.86Q214.93 24.81 215.06 24.75Q215.58 24.48 215.94 24.08Q216.09 23.9 216.22 23.7L216.22 25L217.68 25ZM197.75 18.54Q198.12 19.14 198.12 19.97L192.59 19.97Q192.68 18.94 193.23 18.28Q193.34 18.14 193.47 18.02Q193.78 17.74 194.14 17.57Q194.69 17.32 195.36 17.32Q196.03 17.32 196.6 17.56Q196.68 17.59 196.75 17.63Q197.07 17.79 197.33 18.02Q197.57 18.24 197.75 18.54ZM59.49 23.75Q59.1 23.86 58.68 23.86Q58.15 23.86 57.68 23.69Q57.46 23.62 57.24 23.5Q57.13 23.44 57.02 23.36Q56.52 23.01 56.19 22.41Q55.8 21.67 55.8 20.6Q55.8 19.54 56.2 18.8Q56.53 18.2 57.04 17.85Q57.15 17.77 57.27 17.71Q57.44 17.61 57.62 17.54Q58.14 17.35 58.73 17.35Q59.21 17.35 59.64 17.48Q59.92 17.56 60.19 17.71Q60.3 17.77 60.41 17.84Q60.93 18.2 61.27 18.8Q61.69 19.54 61.69 20.6Q61.69 21.65 61.26 22.39Q60.94 22.95 60.46 23.3Q60.31 23.41 60.15 23.49Q59.83 23.66 59.49 23.75ZM98.87 18.87Q99.28 19.6 99.28 20.6Q99.28 21.59 98.87 22.33Q98.58 22.87 98.14 23.23Q97.98 23.36 97.8 23.47Q97.56 23.6 97.31 23.69Q96.83 23.86 96.3 23.86Q95.74 23.86 95.26 23.68Q95.03 23.59 94.81 23.47Q94.66 23.38 94.52 23.27Q94.05 22.9 93.74 22.33Q93.34 21.59 93.34 20.58Q93.34 19.59 93.74 18.85Q94.05 18.28 94.52 17.92Q94.66 17.82 94.81 17.73Q95.02 17.61 95.24 17.53Q95.73 17.35 96.3 17.35Q96.82 17.35 97.29 17.51Q97.55 17.6 97.8 17.74Q97.98 17.85 98.15 17.98Q98.59 18.34 98.87 18.87ZM147.62 23.75Q147.23 23.86 146.81 23.86Q146.28 23.86 145.81 23.69Q145.59 23.62 145.37 23.5Q145.26 23.44 145.15 23.36Q144.65 23.01 144.32 22.41Q143.93 21.67 143.93 20.6Q143.93 19.54 144.33 18.8Q144.66 18.2 145.17 17.85Q145.28 17.77 145.4 17.71Q145.57 17.61 145.75 17.54Q146.27 17.35 146.86 17.35Q147.33 17.35 147.77 17.48Q148.05 17.56 148.31 17.71Q148.43 17.77 148.54 17.84Q149.06 18.2 149.4 18.8Q149.82 19.54 149.82 20.6Q149.82 21.65 149.39 22.39Q149.07 22.95 148.59 23.3Q148.44 23.41 148.28 23.49Q147.96 23.66 147.62 23.75ZM121 19.75L121 18.51L112.59 18.51L112.59 19.75L121 19.75ZM131.71 18.68Q132.13 18.56 132.59 18.56Q133.63 18.56 134.25 19.07Q134.36 19.17 134.46 19.28Q134.49 19.31 134.51 19.34Q135.1 20.04 135.1 21.23Q135.1 22.25 134.61 22.9Q134.53 23.02 134.44 23.12Q134.26 23.3 134.06 23.43Q133.48 23.81 132.65 23.81Q131.54 23.81 130.87 23.27Q130.74 23.17 130.64 23.05Q130.49 22.9 130.37 22.72Q129.93 22.04 129.93 21.07Q129.93 20.27 130.3 19.7L130.31 19.69Q130.52 19.37 130.81 19.13Q131.03 18.96 131.29 18.84Q131.5 18.75 131.71 18.68Z" fill="#000000" fill-opacity="1.000000" fill-rule="evenodd"/>
</svg>
